HIERARCHY
ROOT Hips
{
	OFFSET 0.00000 0.00000 0.00000
	CHANNELS 6 Xposition Yposition Zposition Zrotation Yrotation Xrotation 
	JOINT LHipJoint
	{
		OFFSET 0 0 0
		CHANNELS 3 Zrotation Yrotation Xrotation
		JOINT LeftHip
		{
			OFFSET 1.84395 -1.68683 0.74144
			CHANNELS 3 Zrotation Yrotation Xrotation
			JOINT LeftKnee
			{
				OFFSET 2.27037 -6.23779 0.00000
				CHANNELS 3 Zrotation Yrotation Xrotation
				JOINT LeftAnkle
				{
					OFFSET 2.56918 -7.05877 0.00000
					CHANNELS 3 Zrotation Yrotation Xrotation
					JOINT LeftToe
					{
						OFFSET 0.22276 -0.61202 1.71784
						CHANNELS 3 Zrotation Yrotation Xrotation
						End Site
						{
							OFFSET 0.00000 -0.00000 0.91613
						}
					}
				}
			}
		}
	}
	JOINT RHipJoint
	{
		OFFSET 0 0 0
		CHANNELS 3 Zrotation Yrotation Xrotation
		JOINT RightHip
		{
			OFFSET -1.76833 -1.68684 0.74144
			CHANNELS 3 Zrotation Yrotation Xrotation
			JOINT RightKnee
			{
				OFFSET -2.49360 -6.85110 0.00000
				CHANNELS 3 Zrotation Yrotation Xrotation
				JOINT RightAnkle
				{
					OFFSET -2.55538 -7.02085 0.00000
					CHANNELS 3 Zrotation Yrotation Xrotation
					JOINT RightToe
					{
						OFFSET -0.21516 -0.59115 1.68050
						CHANNELS 3 Zrotation Yrotation Xrotation
						End Site
						{
							OFFSET -0.00000 -0.00000 0.89604
						}
					}
				}
			}
		}
	}
	JOINT lowerback
	{
		OFFSET 0 0 0
		CHANNELS 3 Zrotation Yrotation Xrotation
		JOINT Chest
		{
			OFFSET 0.06382 1.72312 -0.19613
			CHANNELS 3 Zrotation Yrotation Xrotation
			JOINT Chest2
			{
				OFFSET -0.00055 1.73507 0.23859
				CHANNELS 3 Zrotation Yrotation Xrotation
				JOINT lowerneck
				{
					OFFSET 0 0 0
					CHANNELS 3 Zrotation Yrotation Xrotation
					JOINT Neck
					{
						OFFSET 0.03638 1.65562 0.09633
						CHANNELS 3 Zrotation Yrotation Xrotation
						JOINT Head
						{
							OFFSET 0.06388 1.62807 -0.32386
							CHANNELS 3 Zrotation Yrotation Xrotation
							End Site
							{
								OFFSET 0.00995 1.67644 -0.12021
							}
						}
					}
				}
				JOINT LeftCollar
				{
					OFFSET 0 0 0
					CHANNELS 3 Zrotation Yrotation Xrotation
					JOINT LeftShoulder
					{
						OFFSET 3.09648 1.42991 0.28122
CHANNELS 3 Zrotation Xrotation Yrotation
						JOINT LeftElbow
						{
OFFSET 0 -5.118780 -0.000000
CHANNELS 3 Zrotation Xrotation Yrotation
							JOINT LeftWrist
							{
OFFSET 0 -3.599710 0.000000
CHANNELS 3 Zrotation Xrotation Yrotation
								JOINT lhand
								{
									OFFSET 0 0 0
CHANNELS 3 Zrotation Xrotation Yrotation
									JOINT LFingers
									{
OFFSET 0 -0.628770 0.000000
CHANNELS 3 Zrotation Xrotation Yrotation
										End Site
										{
OFFSET 0 -0.506930 0.000000
										}
									}
								}
								JOINT LThumb
								{
OFFSET 0 0.000000 0.000000
CHANNELS 3 Zrotation Xrotation Yrotation
									End Site
									{
OFFSET 0 -0.514670 0.514670
									}
								}
							}
						}
					}
				}
				JOINT RightCollar
				{
					OFFSET 0 0 0
					CHANNELS 3 Zrotation Yrotation Xrotation
					JOINT RightShoulder
					{
						OFFSET -3.33565 1.14597 0.05047
CHANNELS 3 Zrotation Xrotation Yrotation
						JOINT RightElbow
						{
OFFSET 0 -5.490200 0.000000
CHANNELS 3 Zrotation Xrotation Yrotation
							JOINT RightWrist
							{
OFFSET 0 -3.206590 -0.000000
CHANNELS 3 Zrotation Xrotation Yrotation
								JOINT rhand
								{
									OFFSET 0 0 0
CHANNELS 3 Zrotation Xrotation Yrotation
									JOINT RFingers
									{
OFFSET 0 -0.691880 0.000000
CHANNELS 3 Zrotation Xrotation Yrotation
										End Site
										{
OFFSET 0 -0.557810 0.000000
										}
									}
								}
								JOINT RThumb
								{
OFFSET 0 0.000000 0.000000
CHANNELS 3 Zrotation Xrotation Yrotation
									End Site
									{
OFFSET 0 -0.566330 0.566330
									}
								}
							}
						}
					}
				}
			}
		}
	}
}
MOTION
Frames: 11
Frame Time: 0.008333333333333333
0.050600 17.425800 8.210700 -8.043700 -1.580700 8.583200 0.000000 0.000000 0.000000 -25.588600 -46.014300 32.442500 0.052700 -1.481800 -4.075500 0.517300 42.812400 -59.628200 1.647800 8.090200 22.988500 0.000000 0.000000 0.000000 24.455900 25.709900 7.077900 -0.000800 -0.188300 0.517300 0.994600 -21.159200 -20.986700 -0.002500 0.325700 -0.894900 4.536800 1.027400 -0.359100 2.496400 1.827500 -9.708100 -0.018100 0.641500 -10.052300 -5.374000 -7.865800 -10.860600 4.982200 -11.898900 30.397900 1.106100 -5.365400 12.497400 -0.000000 0.000000 0.000000 -5.860000 12.233500 -3.054900 11.504200 -19.057000 1.937400 17.973100 24.147900 11.504800 0.000000 0.000000 0.000000 -7.125000 0.000000 0.000000 -6.423000 17.946600 -4.157600 -0.000000 0.000000 0.000000 3.148600 10.737100 -0.691100 -13.041400 -21.347900 -2.468300 12.761100 36.555200 34.426200 0.000000 0.000000 0.000000 7.125000 0.000000 -0.000000 49.601700 57.283600 -17.824100
0.035106 17.421004 8.173766 -8.896099 -1.722687 9.684094 0.000000 0.000000 0.000000 -22.001251 -45.861406 29.367389 0.057234 -1.543568 -4.245766 0.124655 42.592225 -58.491233 1.609465 7.999770 22.713689 0.000000 0.000000 0.000000 24.935306 26.945895 5.515433 -0.004963 -0.454091 1.247770 1.051244 -21.457544 -20.963768 -0.004229 0.379221 -1.042057 5.134544 1.161290 -0.861935 2.734864 2.041141 -10.096493 -0.099619 0.702050 -10.186127 -5.587737 -7.904187 -10.923005 5.272913 -12.014830 30.563293 1.227488 -5.399144 12.625367 0.000000 0.000000 0.000000 -5.778290 12.328438 -3.401931 11.519432 -19.080034 1.942305 17.855498 23.812497 11.690672 0.000000 0.000000 0.000000 -7.125000 0.000000 0.000000 -6.506797 17.762345 -4.239105 0.000000 0.000000 0.000000 3.171121 10.653752 -0.684478 -12.995197 -21.280065 -2.451555 12.606915 36.639592 34.286635 0.000000 0.000000 0.000000 7.125000 0.000000 0.000000 49.316902 57.219709 -17.602915
0.024350 17.432082 8.197401 -8.236856 -1.752345 10.096720 0.000000 0.000000 0.000000 -22.904305 -46.633741 29.478638 0.053096 -1.487345 -4.090760 0.620502 42.553746 -59.545639 1.702882 8.217435 23.376557 0.000000 0.000000 0.000000 24.060535 27.343543 5.373638 -0.003115 -0.361052 0.992034 1.114663 -21.840752 -21.063081 -0.005497 -0.479835 1.318395 4.448612 1.208089 -1.116816 2.454640 2.055311 -10.575023 -0.012844 0.743449 -10.580940 -5.750916 -7.963763 -10.616065 5.504668 -12.205910 31.019682 1.322475 -5.474014 12.795581 0.000000 0.000000 0.000000 -5.430360 13.251886 -4.642020 11.553151 -19.131082 1.953362 17.987826 22.752413 11.747234 0.000000 0.000000 0.000000 -7.125000 0.000000 0.000000 -6.414812 17.693413 -4.188189 0.000000 0.000000 0.000000 3.098226 11.148403 -0.290820 -12.588211 -20.680925 -2.305858 11.414936 36.713197 34.091703 0.000000 0.000000 0.000000 7.125000 0.000000 0.000000 48.064480 57.343183 -17.148498
0.025047 17.431300 8.205500 -8.407677 -1.648496 10.142120 0.000000 0.000000 0.000000 -22.515664 -46.465401 29.243317 0.054610 -1.508259 -4.148483 0.277700 42.707803 -58.976414 1.624130 8.034772 22.819823 0.000000 0.000000 0.000000 24.295088 27.338583 5.440219 -0.002727 -0.335421 0.921571 1.113700 -21.885576 -21.178846 -0.009414 -0.626024 1.720231 4.679065 1.198269 -1.289630 2.479688 2.042647 -10.572182 -0.109402 0.720008 -10.470713 -5.955808 -8.059501 -10.741786 5.699938 -12.390248 31.289210 1.393168 -5.544813 12.981565 0.000000 0.000000 0.000000 -5.433011 13.266444 -4.507179 11.550927 -19.127835 1.952676 18.016966 22.865505 11.900223 0.000000 0.000000 0.000000 -7.125000 0.000000 0.000000 -6.396074 17.532100 -4.198554 0.000000 0.000000 0.000000 3.158801 11.194096 -0.411420 -12.618612 -20.725855 -2.316580 11.490673 36.709562 34.287139 0.000000 0.000000 0.000000 7.125000 0.000000 0.000000 48.339967 57.465358 -17.432086
0.025582 17.431453 8.205565 -8.382827 -1.646149 10.156860 0.000000 0.000000 0.000000 -22.572767 -46.518573 29.275116 0.054500 -1.506658 -4.143993 0.254862 42.791171 -59.027704 1.620319 8.025936 22.792849 0.000000 0.000000 0.000000 24.266873 27.381494 5.433318 -0.002818 -0.344324 0.946036 1.117393 -21.924442 -21.223352 -0.007956 -0.570283 1.567157 4.655217 1.186796 -1.308185 2.486949 2.025580 -10.578912 -0.086680 0.714208 -10.468652 -6.225753 -8.097730 -10.867707 5.952527 -12.495406 31.580992 1.509693 -5.580154 13.183401 0.000000 0.000000 0.000000 -5.418744 13.351628 -5.074012 11.696965 -19.348559 2.000781 17.696110 22.917132 10.739087 0.000000 0.000000 0.000000 -7.125000 0.000000 0.000000 -6.615004 18.762015 -4.162576 0.000000 0.000000 0.000000 3.160665 11.210054 -0.569601 -12.635547 -20.750847 -2.322582 11.588499 36.852962 34.216187 0.000000 0.000000 0.000000 7.125000 0.000000 0.000000 48.349867 57.393578 -17.348390
0.024900 17.430900 8.203728 -8.397893 -1.660667 10.209097 0.000000 0.000000 0.000000 -22.452040 -46.525801 29.147506 0.054444 -1.505482 -4.140801 0.342711 42.662264 -59.064815 1.647246 8.089023 22.984844 0.000000 0.000000 0.000000 24.265678 27.490156 5.390844 -0.003044 -0.354745 0.974643 1.104285 -21.902374 -21.332205 -0.012970 -0.736238 2.023362 4.640159 1.203321 -1.283896 2.512014 2.052816 -10.608763 -0.053895 0.729187 -10.518126 -6.396593 -8.149654 -11.058596 6.050988 -12.592997 31.906190 1.549864 -5.616856 13.394481 0.000000 0.000000 0.000000 -5.454218 13.205743 -4.571211 11.508909 -19.064099 1.938879 17.986997 22.847269 11.913005 0.000000 0.000000 0.000000 -7.125000 0.000000 0.000000 -6.417101 17.521197 -4.214085 0.000000 0.000000 0.000000 3.135356 11.234510 -0.564103 -12.642940 -20.761830 -2.325224 11.533022 36.743848 34.270177 0.000000 0.000000 0.000000 7.125000 0.000000 0.000000 48.358884 57.443979 -17.414968
0.025353 17.431220 8.203247 -8.419926 -1.644668 10.188439 0.000000 0.000000 0.000000 -22.513821 -46.589686 29.261036 0.054020 -1.499826 -4.125270 0.464354 42.575220 -59.228405 1.671533 8.145417 23.156679 0.000000 0.000000 0.000000 24.309918 27.475813 5.433749 -0.002800 -0.343465 0.943643 1.124045 -21.972435 -21.253663 -0.008403 -0.590459 1.622651 4.663548 1.185740 -1.197412 2.523309 2.039117 -10.639971 -0.055117 0.718977 -10.606733 -6.442494 -8.147396 -11.015117 6.129408 -12.611346 31.930295 1.586612 -5.621503 13.407640 0.000000 0.000000 0.000000 -5.421018 13.296782 -4.758422 11.533961 -19.102025 1.947114 17.960960 22.707668 11.692302 0.000000 0.000000 0.000000 -7.125000 0.000000 0.000000 -6.433098 17.752595 -4.191910 0.000000 0.000000 0.000000 3.121031 11.304061 -0.507290 -12.619666 -20.727380 -2.316970 11.372025 36.883234 34.230702 0.000000 0.000000 0.000000 7.125000 0.000000 0.000000 48.174919 57.451413 -17.334700
0.025757 17.432714 8.204062 -8.399167 -1.622443 10.145150 0.000000 0.000000 0.000000 -22.436195 -46.423785 29.141804 0.055148 -1.515402 -4.168300 0.135684 42.819290 -58.797857 1.579542 7.929083 22.499024 0.000000 0.000000 0.000000 24.345080 27.570099 5.565591 -0.002781 -0.340749 0.936370 1.115218 -22.032556 -21.497952 -0.014219 -0.770676 2.118075 4.643447 1.181748 -1.150071 2.520473 2.036063 -10.640042 -0.047677 0.718638 -10.635630 -6.359024 -8.154461 -11.112478 5.957161 -12.597780 32.107467 1.503780 -5.620428 13.482704 0.000000 0.000000 0.000000 -5.381234 13.395323 -4.996079 11.599928 -19.202007 1.968749 17.937059 22.546878 11.597387 0.000000 0.000000 0.000000 -7.125000 0.000000 0.000000 -6.449045 17.853071 -4.188035 0.000000 0.000000 0.000000 3.109807 11.332704 -0.528653 -12.579103 -20.667390 -2.302625 11.291885 37.205091 34.057403 0.000000 0.000000 0.000000 7.125000 0.000000 0.000000 47.919587 57.345682 -17.081861
0.027365 17.433371 8.205123 -8.357761 -1.590248 10.098443 0.000000 0.000000 0.000000 -22.548804 -46.423593 29.204354 0.054171 -1.501597 -4.130044 0.227824 42.665237 -58.813340 1.629800 8.047953 22.859996 0.000000 0.000000 0.000000 24.299128 27.421976 5.585400 -0.002500 -0.320265 0.880029 1.141619 -22.063356 -21.250298 -0.006779 -0.530550 1.457898 4.628641 1.165646 -1.108516 2.507517 2.015851 -10.644740 -0.052602 0.708731 -10.666503 -6.424483 -8.203275 -11.073468 5.986977 -12.674051 32.158365 1.514716 -5.658176 13.510797 0.000000 0.000000 0.000000 -5.352041 13.337241 -4.848013 11.511879 -19.068616 1.939838 18.059114 22.682825 11.767634 0.000000 0.000000 0.000000 -7.125000 0.000000 0.000000 -6.365158 17.666702 -4.159112 0.000000 0.000000 0.000000 3.058006 11.346711 -0.324045 -12.557017 -20.634675 -2.294794 11.343655 36.958600 34.145124 0.000000 0.000000 0.000000 7.125000 0.000000 0.000000 48.058521 57.396785 -17.211336
0.027690 17.434061 8.205059 -8.381602 -1.557992 10.084799 0.000000 0.000000 0.000000 -22.508960 -46.432155 29.222020 0.055069 -1.514133 -4.164771 0.227625 42.646664 -58.789963 1.630551 8.050018 22.866151 0.000000 0.000000 0.000000 24.339699 27.446707 5.625470 -0.002410 -0.317236 0.871617 1.128527 -22.058026 -21.397440 -0.010793 -0.670757 1.843384 4.681415 1.146519 -1.023400 2.493095 2.000049 -10.692097 -0.097321 0.692881 -10.771561 -6.373919 -8.188630 -11.034287 5.952439 -12.663428 32.229952 1.496554 -5.652027 13.525518 0.000000 0.000000 0.000000 -5.273459 13.419385 -5.008310 11.516336 -19.075372 1.941314 18.043398 22.663304 11.515074 0.000000 0.000000 0.000000 -7.125000 0.000000 0.000000 -6.374509 17.930321 -4.127391 0.000000 0.000000 0.000000 3.088861 11.387758 -0.213848 -12.580055 -20.668892 -2.302982 11.289323 36.793960 34.199062 0.000000 0.000000 0.000000 7.125000 0.000000 0.000000 48.068262 57.447170 -17.277788
0.028602 17.434388 8.206956 -8.316786 -1.548935 10.084600 0.000000 0.000000 0.000000 -22.575650 -46.392445 29.190350 0.054744 -1.510331 -4.154104 0.241692 42.607297 -58.773036 1.636563 8.064074 22.908882 0.000000 0.000000 0.000000 24.251228 27.374099 5.600184 -0.002444 -0.317857 0.873220 1.126833 -22.034027 -21.361695 -0.008346 -0.590267 1.622064 4.597822 1.134349 -1.035381 2.500105 1.980705 -10.720804 -0.041467 0.690767 -10.799890 -6.443831 -8.166327 -11.141188 6.021947 -12.650070 32.386481 1.532112 -5.638525 13.627894 0.000000 0.000000 0.000000 -5.299231 13.446776 -4.964981 11.504964 -19.058102 1.937632 17.993478 22.698581 11.472955 0.000000 0.000000 0.000000 -7.125000 0.000000 0.000000 -6.408506 17.978161 -4.143591 0.000000 0.000000 0.000000 3.037264 11.472295 -0.102836 -12.616755 -20.723143 -2.315919 11.145863 36.953325 34.102661 0.000000 0.000000 0.000000 7.125000 0.000000 0.000000 47.838939 57.409995 -17.121674
